<svg xmlns="http://www.w3.org/2000/svg" width="251.023" height="348.37" viewBox="0 0 251.023 348.37">
  <g id="Grupo_42" data-name="Grupo 42" transform="translate(-5118.982 -1034.103)">
    <path id="Caminho_24" data-name="Caminho 24" d="M5242.5,1034.1c6.039.881,12.137,1.474,18.108,2.691,25.344,5.166,46.374,17.961,63.272,37.308,6,6.871,10.664,14.9,16.076,22.3a15.358,15.358,0,0,0,4.736,4.544c17.308,9.27,27.52,28.51,24.9,47.3a47.242,47.242,0,0,1-36.969,40.107c-27.058,5.739-53.679-13.856-56.079-41.28-2.184-24.943,14.061-46.238,38.763-50.818.634-.117,1.261-.269,2.573-.552-2.509-3.177-4.578-6.111-6.959-8.764-19.253-21.452-42.879-34.031-72.1-34.123-29.293-.092-53.476,11.861-72.683,33.571-20.927,23.654-29.6,51.856-28.488,83.127a115.686,115.686,0,0,0,9.6,41.486c1.072,2.513,2.427,3.23,5.075,3.226q86.65-.117,173.3-.059c1.362,0,2.724.017,4.085,0,4.532-.067,9,.12,11.625,4.671,2.609,4.528.549,8.389-1.748,12.357-12.794,22.106-30.349,39.132-53.384,50.34-3.253,1.582-6.632,2.93-10.029,4.18-1.912.7-2.607,1.543-2.234,3.73q3.677,21.6,7.069,43.243c3.566,23.016-12.242,45.12-35,49.118a43.477,43.477,0,0,1-50.281-34.607c-1.622-8.606.255-16.919,1.554-25.291q2.448-15.776,5.177-31.505c.459-2.64-.112-3.964-2.8-5.041-42.745-17.13-67.749-49.357-77.37-93.562-7.666-35.226-1.982-68.913,16.96-99.715,17.914-29.128,43.492-48.262,77.347-55.419,4.739-1,9.642-1.221,14.464-1.84,1.329-.17,2.639-.479,3.958-.725ZM5159.98,1232.9c9.448,12.762,20.346,22.751,33.758,29.627,6.808,3.491,14.167,5.939,21.363,8.628,5.037,1.882,8,5.74,7.274,10.48-1.108,7.279-2.388,14.531-3.507,21.808-1.771,11.526-3.912,23.019-5.065,34.61-1.034,10.392,3.984,18.277,13.082,23.093,8.748,4.63,17.662,3.984,25.708-1.762,8.162-5.828,11.6-14.167,10.138-24.073-2.494-16.92-5.308-33.794-8.066-50.674-1.325-8.115.671-11.756,8.441-13.95a96.675,96.675,0,0,0,41.35-23.963c4.246-4.1,7.977-8.727,11.943-13.114l-.649-.71Zm163.239-118.821a28.453,28.453,0,0,0-.113,56.905,28.453,28.453,0,0,0,.113-56.905Z" fill="#f2f2f2"/>
  </g>
</svg>
